<mxfile host="app.diagrams.net" modified="2023-11-24T10:06:48.160Z" agent="Mozilla/5.0 (Windows NT 10.0; Win64; x64) AppleWebKit/537.36 (KHTML, like Gecko) Chrome/119.0.0.0 Safari/537.36" version="22.1.3" etag="m09XmSJmHRD0G3C8RBpv" type="device">
  <diagram id="35dHj6Gcyt5kmBcMsEUn" name="Page-1">
    <mxGraphModel dx="472" dy="842" grid="1" gridSize="10" guides="1" tooltips="1" connect="1" arrows="1" fold="1" page="1" pageScale="1" pageWidth="827" pageHeight="1169" math="0" shadow="0">
      <root>
        <mxCell id="0" />
        <mxCell id="1" parent="0" />
        <mxCell id="vE6se94yWdglB9NKCB1U-1" value="resultats" style="swimlane;whiteSpace=wrap;html=1;" vertex="1" parent="1">
          <mxGeometry x="30" y="140" width="150" height="200" as="geometry" />
        </mxCell>
        <mxCell id="vE6se94yWdglB9NKCB1U-2" value="pseudo" style="text;html=1;align=center;verticalAlign=middle;resizable=0;points=[];autosize=1;strokeColor=none;fillColor=none;" vertex="1" parent="vE6se94yWdglB9NKCB1U-1">
          <mxGeometry y="28" width="60" height="30" as="geometry" />
        </mxCell>
        <mxCell id="vE6se94yWdglB9NKCB1U-3" value="exercise" style="text;html=1;align=center;verticalAlign=middle;resizable=0;points=[];autosize=1;strokeColor=none;fillColor=none;" vertex="1" parent="vE6se94yWdglB9NKCB1U-1">
          <mxGeometry y="58" width="70" height="30" as="geometry" />
        </mxCell>
        <mxCell id="vE6se94yWdglB9NKCB1U-4" value="Date/heure" style="text;html=1;align=center;verticalAlign=middle;resizable=0;points=[];autosize=1;strokeColor=none;fillColor=none;" vertex="1" parent="vE6se94yWdglB9NKCB1U-1">
          <mxGeometry y="85" width="80" height="30" as="geometry" />
        </mxCell>
        <mxCell id="vE6se94yWdglB9NKCB1U-5" value="temps" style="text;html=1;align=center;verticalAlign=middle;resizable=0;points=[];autosize=1;strokeColor=none;fillColor=none;" vertex="1" parent="vE6se94yWdglB9NKCB1U-1">
          <mxGeometry y="108" width="60" height="30" as="geometry" />
        </mxCell>
        <mxCell id="vE6se94yWdglB9NKCB1U-6" value="nbTotal" style="text;html=1;align=center;verticalAlign=middle;resizable=0;points=[];autosize=1;strokeColor=none;fillColor=none;" vertex="1" parent="vE6se94yWdglB9NKCB1U-1">
          <mxGeometry y="138" width="60" height="30" as="geometry" />
        </mxCell>
        <mxCell id="vE6se94yWdglB9NKCB1U-7" value="nb rÃ©ussi" style="text;html=1;align=center;verticalAlign=middle;resizable=0;points=[];autosize=1;strokeColor=none;fillColor=none;" vertex="1" parent="vE6se94yWdglB9NKCB1U-1">
          <mxGeometry y="168" width="70" height="30" as="geometry" />
        </mxCell>
      </root>
    </mxGraphModel>
  </diagram>
</mxfile>
